# xmcd
#
# Track frame offsets:
#	150
#	11766
#	22024
#	33329
#	44250
#	55984
#	66395
#	78108
#	92190
#	105455
#	116387
#	126755
#	138020
#	151398
#	163679
#	175837
#	186605
#	198604
#	209669
#	221360
#	230863
#	242367
#	252271
#	263233
#	274655
#	287343
#	300165
#	311594
#
# Disc length: 4335 seconds
#
# Revision: 2
# Processed by: cddbd v1.5.2PL0 Copyright (c) Steve Scherf et al.
# Submitted via: audiograbber 1.83.01
#
DISCID=8b10ed1c
DTITLE=Various Artist - The Louisiana Hayride Story - I Heard The Jukebox Playing(CD 3
DTITLE=of 4)
DYEAR=2006
DGENRE=Country
TTITLE0=Kitty Wells - It Wasn't God Who Made Honky Tonk Angels
TTITLE1=Kitty Wells - I Heard The Jukebox Playing
TTITLE2=Claude King - Take It Like A Man
TTITLE3=Claude King - She's My Baby
TTITLE4=Shot Jackson - You Can't Get The Country Out Of The Boy
TTITLE5=Goldie Hill - Why Talk To My Heart
TTITLE6=Goldie Hill - I Let The Stars Get In My Eyes
TTITLE7=Texas Bill Strength - I'm Doing A Peach Of A Job
TTITLE8=George Morgan - Candy Kisses
TTITLE9=Hank Locklin - Stumpy Joe
TTITLE10=Jimmy Lee - Go Ahead And Go
TTITLE11=Tommy Trent - Paper Boy Boogie
TTITLE12=Charlie Adams - Stop Your Bawlin' Baby
TTITLE13=Faron Young - I Heard The Jukebox Playing
TTITLE14=Slim Willett - Don't Let The Stars Get In Your Eyes
TTITLE15=Johnny Horton - First Train Headin' South
TTITLE16=Jim Reeves - Mexican Joe
TTITLE17=The Carlisles - No Help Wanted
TTITLE18=Hoot&Curley - Liniment and Turpentine
TTITLE19=Tibby Edwards - If You Love Me Let Me Know
TTITLE20=Tibby Edwards - Cry Cry Darlin'
TTITLE21=Carolyn Bradshaw - Oh I Like It
TTITLE22=Carolyn Bradshaw - Say No No No
TTITLE23=Hoot&Curley - Million Dollars Worth Of Memories
TTITLE24=Jim Reeves - Bimbo
TTITLE25=Jim Reeves - Butterfly Love
TTITLE26=Mitchell Torok - Caribbean
TTITLE27=Davis Sisters - I Forgot More Than You'll Ever Know
EXTD=YEAR: 2006 ID3G: 2
EXTT0=
EXTT1=
EXTT2=
EXTT3=
EXTT4=
EXTT5=
EXTT6=
EXTT7=
EXTT8=
EXTT9=
EXTT10=
EXTT11=
EXTT12=
EXTT13=
EXTT14=
EXTT15=
EXTT16=
EXTT17=
EXTT18=
EXTT19=
EXTT20=
EXTT21=
EXTT22=
EXTT23=
EXTT24=
EXTT25=
EXTT26=
EXTT27=
PLAYORDER=
